<mxfile host="app.diagrams.net" agent="Mozilla/5.0 (X11; Ubuntu; Linux x86_64; rv:132.0) Gecko/20100101 Firefox/132.0" version="26.0.9">
  <diagram name="Page-1" id="wtDVfR0BW28qqPww9Eks">
    <mxGraphModel dx="1605" dy="935" grid="1" gridSize="10" guides="1" tooltips="1" connect="1" arrows="1" fold="1" page="1" pageScale="1" pageWidth="850" pageHeight="1100" math="0" shadow="0">
      <root>
        <mxCell id="0" />
        <mxCell id="1" parent="0" />
        <mxCell id="dQUrnfm1UXFpWIXzba-Y-3" value="" style="edgeStyle=orthogonalEdgeStyle;rounded=0;orthogonalLoop=1;jettySize=auto;html=1;" edge="1" parent="1" source="dQUrnfm1UXFpWIXzba-Y-1" target="dQUrnfm1UXFpWIXzba-Y-2">
          <mxGeometry relative="1" as="geometry" />
        </mxCell>
        <mxCell id="dQUrnfm1UXFpWIXzba-Y-1" value="start" style="ellipse;whiteSpace=wrap;html=1;" vertex="1" parent="1">
          <mxGeometry x="360" y="40" width="120" height="80" as="geometry" />
        </mxCell>
        <mxCell id="dQUrnfm1UXFpWIXzba-Y-5" value="" style="edgeStyle=orthogonalEdgeStyle;rounded=0;orthogonalLoop=1;jettySize=auto;html=1;" edge="1" parent="1" source="dQUrnfm1UXFpWIXzba-Y-2" target="dQUrnfm1UXFpWIXzba-Y-4">
          <mxGeometry relative="1" as="geometry" />
        </mxCell>
        <mxCell id="dQUrnfm1UXFpWIXzba-Y-2" value="read x" style="shape=parallelogram;perimeter=parallelogramPerimeter;whiteSpace=wrap;html=1;fixedSize=1;" vertex="1" parent="1">
          <mxGeometry x="360" y="140" width="120" height="60" as="geometry" />
        </mxCell>
        <mxCell id="dQUrnfm1UXFpWIXzba-Y-7" value="" style="edgeStyle=orthogonalEdgeStyle;rounded=0;orthogonalLoop=1;jettySize=auto;html=1;" edge="1" parent="1" source="dQUrnfm1UXFpWIXzba-Y-4" target="dQUrnfm1UXFpWIXzba-Y-6">
          <mxGeometry relative="1" as="geometry" />
        </mxCell>
        <mxCell id="dQUrnfm1UXFpWIXzba-Y-4" value="read y" style="shape=parallelogram;perimeter=parallelogramPerimeter;whiteSpace=wrap;html=1;fixedSize=1;" vertex="1" parent="1">
          <mxGeometry x="360" y="220" width="120" height="60" as="geometry" />
        </mxCell>
        <mxCell id="dQUrnfm1UXFpWIXzba-Y-12" value="" style="edgeStyle=orthogonalEdgeStyle;rounded=0;orthogonalLoop=1;jettySize=auto;html=1;" edge="1" parent="1" source="dQUrnfm1UXFpWIXzba-Y-6" target="dQUrnfm1UXFpWIXzba-Y-11">
          <mxGeometry relative="1" as="geometry" />
        </mxCell>
        <mxCell id="dQUrnfm1UXFpWIXzba-Y-6" value="read z" style="shape=parallelogram;perimeter=parallelogramPerimeter;whiteSpace=wrap;html=1;fixedSize=1;" vertex="1" parent="1">
          <mxGeometry x="360" y="300" width="120" height="60" as="geometry" />
        </mxCell>
        <mxCell id="dQUrnfm1UXFpWIXzba-Y-19" value="" style="edgeStyle=orthogonalEdgeStyle;rounded=0;orthogonalLoop=1;jettySize=auto;html=1;" edge="1" parent="1" source="dQUrnfm1UXFpWIXzba-Y-9" target="dQUrnfm1UXFpWIXzba-Y-18">
          <mxGeometry relative="1" as="geometry" />
        </mxCell>
        <mxCell id="dQUrnfm1UXFpWIXzba-Y-9" value="sum = x + y + z" style="whiteSpace=wrap;html=1;" vertex="1" parent="1">
          <mxGeometry x="360" y="570" width="120" height="60" as="geometry" />
        </mxCell>
        <mxCell id="dQUrnfm1UXFpWIXzba-Y-13" value="" style="edgeStyle=orthogonalEdgeStyle;rounded=0;orthogonalLoop=1;jettySize=auto;html=1;" edge="1" parent="1" source="dQUrnfm1UXFpWIXzba-Y-11" target="dQUrnfm1UXFpWIXzba-Y-9">
          <mxGeometry relative="1" as="geometry" />
        </mxCell>
        <mxCell id="dQUrnfm1UXFpWIXzba-Y-14" value="true" style="edgeLabel;html=1;align=center;verticalAlign=middle;resizable=0;points=[];" vertex="1" connectable="0" parent="dQUrnfm1UXFpWIXzba-Y-13">
          <mxGeometry x="-0.3333" y="5" relative="1" as="geometry">
            <mxPoint as="offset" />
          </mxGeometry>
        </mxCell>
        <mxCell id="dQUrnfm1UXFpWIXzba-Y-16" value="" style="edgeStyle=orthogonalEdgeStyle;rounded=0;orthogonalLoop=1;jettySize=auto;html=1;" edge="1" parent="1" source="dQUrnfm1UXFpWIXzba-Y-11" target="dQUrnfm1UXFpWIXzba-Y-15">
          <mxGeometry relative="1" as="geometry" />
        </mxCell>
        <mxCell id="dQUrnfm1UXFpWIXzba-Y-17" value="false" style="edgeLabel;html=1;align=center;verticalAlign=middle;resizable=0;points=[];" vertex="1" connectable="0" parent="dQUrnfm1UXFpWIXzba-Y-16">
          <mxGeometry x="-0.2" y="1" relative="1" as="geometry">
            <mxPoint as="offset" />
          </mxGeometry>
        </mxCell>
        <mxCell id="dQUrnfm1UXFpWIXzba-Y-11" value="&lt;div&gt;x &amp;gt; 0&lt;/div&gt;&lt;div&gt;and y &amp;gt; 0&lt;/div&gt;&lt;div&gt;and z &amp;gt; 0&lt;/div&gt;&lt;div&gt;and x % 1 == 0 &lt;br&gt;&lt;/div&gt;&lt;div&gt;and z % 1 == 0 &lt;br&gt;&lt;/div&gt;&lt;div&gt;and y % 1 == 0 &lt;br&gt;&lt;/div&gt;" style="rhombus;whiteSpace=wrap;html=1;" vertex="1" parent="1">
          <mxGeometry x="320" y="380" width="200" height="130" as="geometry" />
        </mxCell>
        <mxCell id="dQUrnfm1UXFpWIXzba-Y-15" value="end" style="ellipse;whiteSpace=wrap;html=1;" vertex="1" parent="1">
          <mxGeometry x="660" y="405" width="80" height="80" as="geometry" />
        </mxCell>
        <mxCell id="dQUrnfm1UXFpWIXzba-Y-21" value="" style="edgeStyle=orthogonalEdgeStyle;rounded=0;orthogonalLoop=1;jettySize=auto;html=1;" edge="1" parent="1" source="dQUrnfm1UXFpWIXzba-Y-18" target="dQUrnfm1UXFpWIXzba-Y-20">
          <mxGeometry relative="1" as="geometry" />
        </mxCell>
        <mxCell id="dQUrnfm1UXFpWIXzba-Y-22" value="true" style="edgeLabel;html=1;align=center;verticalAlign=middle;resizable=0;points=[];" vertex="1" connectable="0" parent="dQUrnfm1UXFpWIXzba-Y-21">
          <mxGeometry x="-0.475" y="-1" relative="1" as="geometry">
            <mxPoint as="offset" />
          </mxGeometry>
        </mxCell>
        <mxCell id="dQUrnfm1UXFpWIXzba-Y-30" value="" style="edgeStyle=orthogonalEdgeStyle;rounded=0;orthogonalLoop=1;jettySize=auto;html=1;" edge="1" parent="1" source="dQUrnfm1UXFpWIXzba-Y-18" target="dQUrnfm1UXFpWIXzba-Y-29">
          <mxGeometry relative="1" as="geometry" />
        </mxCell>
        <mxCell id="dQUrnfm1UXFpWIXzba-Y-31" value="false" style="edgeLabel;html=1;align=center;verticalAlign=middle;resizable=0;points=[];" vertex="1" connectable="0" parent="dQUrnfm1UXFpWIXzba-Y-30">
          <mxGeometry x="-0.0571" relative="1" as="geometry">
            <mxPoint as="offset" />
          </mxGeometry>
        </mxCell>
        <mxCell id="dQUrnfm1UXFpWIXzba-Y-18" value="sum % 2 == 0" style="rhombus;whiteSpace=wrap;html=1;" vertex="1" parent="1">
          <mxGeometry x="380" y="700" width="80" height="80" as="geometry" />
        </mxCell>
        <mxCell id="dQUrnfm1UXFpWIXzba-Y-24" value="" style="edgeStyle=orthogonalEdgeStyle;rounded=0;orthogonalLoop=1;jettySize=auto;html=1;" edge="1" parent="1" source="dQUrnfm1UXFpWIXzba-Y-20" target="dQUrnfm1UXFpWIXzba-Y-23">
          <mxGeometry relative="1" as="geometry" />
        </mxCell>
        <mxCell id="dQUrnfm1UXFpWIXzba-Y-25" value="true" style="edgeLabel;html=1;align=center;verticalAlign=middle;resizable=0;points=[];" vertex="1" connectable="0" parent="dQUrnfm1UXFpWIXzba-Y-24">
          <mxGeometry x="-0.36" y="2" relative="1" as="geometry">
            <mxPoint as="offset" />
          </mxGeometry>
        </mxCell>
        <mxCell id="dQUrnfm1UXFpWIXzba-Y-27" value="" style="edgeStyle=orthogonalEdgeStyle;rounded=0;orthogonalLoop=1;jettySize=auto;html=1;" edge="1" parent="1" source="dQUrnfm1UXFpWIXzba-Y-20" target="dQUrnfm1UXFpWIXzba-Y-26">
          <mxGeometry relative="1" as="geometry" />
        </mxCell>
        <mxCell id="dQUrnfm1UXFpWIXzba-Y-28" value="false" style="edgeLabel;html=1;align=center;verticalAlign=middle;resizable=0;points=[];" vertex="1" connectable="0" parent="dQUrnfm1UXFpWIXzba-Y-27">
          <mxGeometry x="-0.4105" y="-2" relative="1" as="geometry">
            <mxPoint as="offset" />
          </mxGeometry>
        </mxCell>
        <mxCell id="dQUrnfm1UXFpWIXzba-Y-20" value="&lt;div&gt;x % 3 == 0&lt;/div&gt;&lt;div&gt;and &lt;br&gt;&lt;/div&gt;&lt;div&gt;y % 5 == 0 &lt;br&gt;&lt;/div&gt;&lt;div&gt;and z % 7 == 0&lt;br&gt;&lt;/div&gt;" style="rhombus;whiteSpace=wrap;html=1;" vertex="1" parent="1">
          <mxGeometry x="540" y="680" width="130" height="120" as="geometry" />
        </mxCell>
        <mxCell id="dQUrnfm1UXFpWIXzba-Y-37" style="edgeStyle=orthogonalEdgeStyle;rounded=0;orthogonalLoop=1;jettySize=auto;html=1;" edge="1" parent="1" source="dQUrnfm1UXFpWIXzba-Y-23">
          <mxGeometry relative="1" as="geometry">
            <mxPoint x="605" y="980" as="targetPoint" />
          </mxGeometry>
        </mxCell>
        <mxCell id="dQUrnfm1UXFpWIXzba-Y-23" value="write regole rispettate" style="shape=parallelogram;perimeter=parallelogramPerimeter;whiteSpace=wrap;html=1;fixedSize=1;" vertex="1" parent="1">
          <mxGeometry x="527.5" y="850" width="155" height="60" as="geometry" />
        </mxCell>
        <mxCell id="dQUrnfm1UXFpWIXzba-Y-38" style="edgeStyle=orthogonalEdgeStyle;rounded=0;orthogonalLoop=1;jettySize=auto;html=1;" edge="1" parent="1" source="dQUrnfm1UXFpWIXzba-Y-26">
          <mxGeometry relative="1" as="geometry">
            <mxPoint x="930" y="740" as="targetPoint" />
          </mxGeometry>
        </mxCell>
        <mxCell id="dQUrnfm1UXFpWIXzba-Y-26" value="write regole non rispettate" style="shape=parallelogram;perimeter=parallelogramPerimeter;whiteSpace=wrap;html=1;fixedSize=1;" vertex="1" parent="1">
          <mxGeometry x="755" y="710" width="120" height="60" as="geometry" />
        </mxCell>
        <mxCell id="dQUrnfm1UXFpWIXzba-Y-32" style="edgeStyle=orthogonalEdgeStyle;rounded=0;orthogonalLoop=1;jettySize=auto;html=1;" edge="1" parent="1" source="dQUrnfm1UXFpWIXzba-Y-29">
          <mxGeometry relative="1" as="geometry">
            <mxPoint x="930" y="440" as="targetPoint" />
            <Array as="points">
              <mxPoint x="260" y="980" />
              <mxPoint x="931" y="980" />
            </Array>
          </mxGeometry>
        </mxCell>
        <mxCell id="dQUrnfm1UXFpWIXzba-Y-29" value="write regole non rispettate" style="shape=parallelogram;perimeter=parallelogramPerimeter;whiteSpace=wrap;html=1;fixedSize=1;" vertex="1" parent="1">
          <mxGeometry x="200" y="710" width="120" height="60" as="geometry" />
        </mxCell>
        <mxCell id="dQUrnfm1UXFpWIXzba-Y-33" value="" style="endArrow=classic;html=1;rounded=0;entryX=1;entryY=0.425;entryDx=0;entryDy=0;entryPerimeter=0;" edge="1" parent="1" target="dQUrnfm1UXFpWIXzba-Y-15">
          <mxGeometry width="50" height="50" relative="1" as="geometry">
            <mxPoint x="930" y="440" as="sourcePoint" />
            <mxPoint x="980" y="390" as="targetPoint" />
          </mxGeometry>
        </mxCell>
      </root>
    </mxGraphModel>
  </diagram>
</mxfile>
